<svg xmlns="http://www.w3.org/2000/svg" xmlns:xlink="http://www.w3.org/1999/xlink" width="500" zoomAndPan="magnify" viewBox="0 0 375 374.999991" height="500" preserveAspectRatio="xMidYMid meet" version="1.0"><defs><clipPath id="id1"><path d="M 21.613281 21.613281 L 353.113281 21.613281 L 353.113281 353.113281 L 21.613281 353.113281 Z M 21.613281 21.613281 " clip-rule="nonzero"/></clipPath></defs><g clip-path="url(#id1)"><path fill="rgb(172, 17, 12)" d="M 292.164062 322.152344 C 291.664062 331.777344 283.746094 339.3125 274.125 339.3125 L 100.605469 339.3125 C 90.980469 339.3125 83.066406 331.777344 82.59375 322.152344 L 70.320312 76.882812 C 78.53125 76.882812 298.785156 76.882812 304.40625 76.882812 Z M 117.96875 50.425781 C 118.203125 49.75 118.292969 49.042969 118.292969 48.308594 C 118.292969 41.214844 124.089844 35.445312 131.183594 35.445312 L 243.546875 35.445312 C 250.640625 35.445312 256.4375 41.214844 256.4375 48.308594 C 256.4375 49.042969 256.523438 49.75 256.761719 50.425781 L 260.792969 63.050781 L 113.9375 63.050781 Z M 346.199219 63.050781 C 338.105469 63.050781 284.128906 63.050781 275.273438 63.050781 L 270.210938 47.160156 C 269.621094 32.972656 257.878906 21.613281 243.546875 21.613281 L 131.183594 21.613281 C 116.851562 21.613281 105.136719 32.972656 104.519531 47.160156 L 99.457031 63.050781 C 90.597656 63.050781 36.625 63.050781 28.53125 63.050781 C 24.703125 63.050781 21.613281 66.140625 21.613281 69.96875 C 21.613281 73.765625 24.703125 76.882812 28.53125 76.882812 L 56.488281 76.882812 L 68.789062 322.832031 C 69.644531 339.839844 83.625 353.113281 100.605469 353.113281 L 274.125 353.113281 C 291.136719 353.113281 305.113281 339.839844 305.9375 322.832031 L 318.238281 76.882812 L 346.199219 76.882812 C 350.023438 76.882812 353.113281 73.765625 353.113281 69.96875 C 353.113281 66.140625 350.023438 63.050781 346.199219 63.050781 "/></g><path fill="rgb(172, 17, 12)" d="M 125.207031 111.40625 C 121.382812 111.40625 118.292969 114.496094 118.292969 118.320312 L 118.292969 297.875 C 118.292969 301.699219 121.382812 304.761719 125.207031 304.761719 C 129.035156 304.761719 132.125 301.699219 132.125 297.875 L 132.125 118.320312 C 132.125 114.496094 129.035156 111.40625 125.207031 111.40625 "/><path fill="rgb(172, 17, 12)" d="M 187.363281 111.40625 C 183.539062 111.40625 180.449219 114.496094 180.449219 118.320312 L 180.449219 297.875 C 180.449219 301.699219 183.539062 304.761719 187.363281 304.761719 C 191.191406 304.761719 194.28125 301.699219 194.28125 297.875 L 194.28125 118.320312 C 194.28125 114.496094 191.191406 111.40625 187.363281 111.40625 "/><path fill="rgb(172, 17, 12)" d="M 249.519531 111.40625 C 245.695312 111.40625 242.605469 114.496094 242.605469 118.320312 L 242.605469 297.875 C 242.605469 301.699219 245.695312 304.761719 249.519531 304.761719 C 253.347656 304.761719 256.4375 301.699219 256.4375 297.875 L 256.4375 118.320312 C 256.4375 114.496094 253.347656 111.40625 249.519531 111.40625 "/></svg>