<svg xmlns="http://www.w3.org/2000/svg" xmlns:xlink="http://www.w3.org/1999/xlink" width="500" zoomAndPan="magnify" viewBox="0 0 375 374.999991" height="500" preserveAspectRatio="xMidYMid meet" version="1.0"><defs><clipPath id="id1"><path d="M 19 19 L 356 19 L 356 356.25 L 19 356.25 Z M 19 19 " clip-rule="nonzero"/></clipPath></defs><g clip-path="url(#id1)"><path fill="rgb(90.19928%, 90.979004%, 94.119263%)" d="M 354.296875 346.609375 C 356.492188 348.804688 356.492188 352.363281 354.296875 354.558594 C 353.199219 355.65625 351.757812 356.203125 350.320312 356.203125 C 348.882812 356.203125 347.445312 355.65625 346.347656 354.558594 L 187.476562 195.6875 L 28.605469 354.558594 C 27.507812 355.65625 26.070312 356.203125 24.632812 356.203125 C 23.195312 356.203125 21.753906 355.65625 20.660156 354.558594 C 18.464844 352.363281 18.464844 348.804688 20.660156 346.609375 L 179.527344 187.738281 L 20.660156 28.867188 C 18.464844 26.671875 18.464844 23.113281 20.660156 20.921875 C 22.851562 18.726562 26.410156 18.726562 28.605469 20.921875 L 187.476562 179.789062 L 346.347656 20.921875 C 348.542969 18.726562 352.101562 18.726562 354.296875 20.921875 C 356.492188 23.113281 356.492188 26.671875 354.296875 28.867188 L 195.425781 187.738281 Z M 354.296875 346.609375 " fill-opacity="1" fill-rule="nonzero"/></g></svg>