<svg xmlns="http://www.w3.org/2000/svg" xmlns:xlink="http://www.w3.org/1999/xlink" width="500" zoomAndPan="magnify" viewBox="0 0 375 374.999991" height="500" preserveAspectRatio="xMidYMid meet" version="1.0"><defs><clipPath id="id1"><path d="M 18.75 19 L 356 19 L 356 356 L 18.75 356 Z M 18.75 19 " clip-rule="nonzero"/></clipPath></defs><g clip-path="url(#id1)"><path fill="rgb(29, 162, 214)" d="M 345.4375 143.230469 C 343.574219 141.066406 341.5 139.125 339.214844 137.40625 C 336.933594 135.6875 334.492188 134.234375 331.894531 133.042969 C 329.300781 131.851562 326.605469 130.949219 323.8125 130.339844 C 321.023438 129.730469 318.199219 129.425781 315.339844 129.421875 L 223.296875 129.421875 L 223.296875 70.324219 C 223.300781 68.644531 223.195312 66.972656 222.988281 65.308594 C 222.777344 63.640625 222.460938 61.996094 222.042969 60.371094 C 221.625 58.746094 221.105469 57.152344 220.480469 55.59375 C 219.859375 54.035156 219.140625 52.519531 218.324219 51.054688 C 217.511719 49.585938 216.605469 48.175781 215.609375 46.824219 C 214.617188 45.472656 213.539062 44.1875 212.382812 42.972656 C 211.222656 41.757812 209.992188 40.621094 208.6875 39.5625 C 207.386719 38.503906 206.019531 37.53125 204.59375 36.648438 L 181.289062 22.039062 C 180.855469 21.765625 180.410156 21.519531 179.953125 21.292969 C 179.492188 21.070312 179.023438 20.871094 178.542969 20.695312 C 178.0625 20.519531 177.574219 20.371094 177.078125 20.246094 C 176.582031 20.121094 176.082031 20.023438 175.578125 19.953125 C 175.070312 19.882812 174.5625 19.835938 174.050781 19.820312 C 173.539062 19.800781 173.03125 19.808594 172.519531 19.84375 C 172.011719 19.878906 171.503906 19.941406 171 20.03125 C 170.496094 20.121094 170 20.234375 169.507812 20.375 C 169.015625 20.515625 168.535156 20.683594 168.0625 20.875 C 167.585938 21.066406 167.125 21.28125 166.671875 21.519531 C 166.222656 21.761719 165.785156 22.023438 165.363281 22.308594 C 164.9375 22.597656 164.53125 22.902344 164.140625 23.230469 C 163.746094 23.5625 163.375 23.910156 163.019531 24.277344 C 162.664062 24.644531 162.332031 25.03125 162.015625 25.433594 C 161.703125 25.835938 161.410156 26.253906 161.140625 26.6875 C 160.867188 27.121094 160.621094 27.566406 160.398438 28.027344 L 89.976562 173.253906 L 33.359375 173.253906 C 32.402344 173.253906 31.449219 173.347656 30.511719 173.535156 C 29.570312 173.722656 28.65625 174 27.769531 174.367188 C 26.882812 174.734375 26.039062 175.183594 25.242188 175.71875 C 24.445312 176.25 23.707031 176.855469 23.027344 177.535156 C 22.351562 178.210938 21.746094 178.949219 21.210938 179.75 C 20.679688 180.546875 20.230469 181.386719 19.863281 182.273438 C 19.496094 183.160156 19.21875 184.074219 19.03125 185.015625 C 18.84375 185.957031 18.75 186.90625 18.75 187.867188 L 18.75 341.273438 C 18.75 342.234375 18.84375 343.183594 19.03125 344.125 C 19.21875 345.066406 19.496094 345.980469 19.863281 346.867188 C 20.230469 347.75 20.679688 348.59375 21.210938 349.390625 C 21.746094 350.1875 22.351562 350.925781 23.027344 351.605469 C 23.707031 352.285156 24.445312 352.890625 25.242188 353.421875 C 26.039062 353.957031 26.882812 354.40625 27.769531 354.773438 C 28.65625 355.140625 29.570312 355.417969 30.511719 355.605469 C 31.449219 355.792969 32.402344 355.882812 33.359375 355.882812 L 293.570312 355.882812 C 294.75 355.878906 295.925781 355.820312 297.097656 355.710938 C 298.269531 355.601562 299.433594 355.441406 300.59375 355.226562 C 301.75 355.015625 302.898438 354.753906 304.03125 354.4375 C 305.167969 354.125 306.285156 353.761719 307.390625 353.347656 C 308.492188 352.933594 309.574219 352.472656 310.636719 351.964844 C 311.699219 351.457031 312.734375 350.902344 313.75 350.300781 C 314.761719 349.703125 315.746094 349.058594 316.703125 348.371094 C 317.660156 347.683594 318.582031 346.953125 319.472656 346.1875 C 320.367188 345.417969 321.222656 344.609375 322.042969 343.765625 C 322.863281 342.921875 323.644531 342.039062 324.386719 341.128906 C 325.128906 340.214844 325.832031 339.269531 326.488281 338.292969 C 327.148438 337.316406 327.765625 336.3125 328.335938 335.285156 C 328.90625 334.253906 329.429688 333.199219 329.90625 332.125 C 330.382812 331.046875 330.8125 329.953125 331.191406 328.835938 C 331.574219 327.722656 331.902344 326.59375 332.183594 325.449219 C 332.464844 324.304688 332.695312 323.152344 332.875 321.988281 L 354.789062 175.007812 C 355.199219 172.179688 355.300781 169.339844 355.097656 166.488281 C 354.894531 163.636719 354.390625 160.839844 353.582031 158.097656 C 352.777344 155.355469 351.683594 152.730469 350.3125 150.226562 C 348.9375 147.71875 347.316406 145.386719 345.4375 143.230469 Z M 47.972656 202.476562 L 84.496094 202.476562 L 84.496094 326.664062 L 47.972656 326.664062 Z M 325.566406 170.699219 L 303.652344 317.679688 C 303.558594 318.28125 303.417969 318.875 303.222656 319.453125 C 303.027344 320.035156 302.785156 320.59375 302.492188 321.132812 C 302.199219 321.667969 301.863281 322.175781 301.484375 322.65625 C 301.105469 323.136719 300.6875 323.578125 300.230469 323.984375 C 299.773438 324.394531 299.285156 324.757812 298.765625 325.078125 C 298.246094 325.402344 297.703125 325.679688 297.132812 325.90625 C 296.566406 326.132812 295.984375 326.3125 295.386719 326.4375 C 294.789062 326.566406 294.183594 326.640625 293.570312 326.664062 L 113.71875 326.664062 L 113.71875 191.226562 L 179.464844 55.496094 L 188.960938 61.414062 C 189.734375 61.871094 190.4375 62.421875 191.070312 63.0625 C 191.703125 63.703125 192.242188 64.414062 192.6875 65.195312 C 193.136719 65.976562 193.480469 66.800781 193.714844 67.671875 C 193.949219 68.539062 194.070312 69.425781 194.074219 70.324219 L 194.074219 144.035156 C 194.074219 144.992188 194.167969 145.945312 194.355469 146.882812 C 194.542969 147.824219 194.820312 148.738281 195.1875 149.625 C 195.554688 150.511719 196.003906 151.355469 196.535156 152.152344 C 197.070312 152.949219 197.675781 153.6875 198.355469 154.363281 C 199.03125 155.042969 199.769531 155.648438 200.566406 156.183594 C 201.367188 156.714844 202.207031 157.164062 203.09375 157.53125 C 203.980469 157.898438 204.894531 158.175781 205.835938 158.363281 C 206.777344 158.550781 207.726562 158.644531 208.683594 158.644531 L 315.339844 158.644531 C 316.089844 158.65625 316.828125 158.75 317.554688 158.917969 C 318.285156 159.089844 318.984375 159.335938 319.664062 159.65625 C 320.339844 159.972656 320.972656 160.363281 321.566406 160.816406 C 322.160156 161.273438 322.699219 161.785156 323.183594 162.355469 C 323.667969 162.925781 324.085938 163.542969 324.4375 164.203125 C 324.789062 164.859375 325.070312 165.550781 325.273438 166.269531 C 325.480469 166.988281 325.609375 167.722656 325.65625 168.46875 C 325.707031 169.214844 325.675781 169.957031 325.566406 170.699219 Z M 325.566406 170.699219 "/></g></svg>